# xmcd
#
# Track frame offsets:
#	150
#	6197
#	9189
#	12725
#	21553
#	28904
#	35221
#	42031
#	46026
#	50887
#	57019
#	64022
#	70138
#	74551
#	82422
#	88851
#	95231
#	100219
#	106383
#	111357
#	115449
#	122257
#	126299
#	133007
#	141011
#	146743
#	154439
#
# Disc length: 2144 seconds
#
# Revision: 1
# Processed by: cddbd v1.5.2PL0 Copyright (c) Steve Scherf et al.
# Submitted via: audiograbber 1.83.01
#
DISCID=98085e1b
DTITLE=Mumakill - Behold the failure
DYEAR=2009
DGENRE=Grindcore
TTITLE0=Brothers in slavery
TTITLE1=Barbecue in Bhopal
TTITLE2=Get wasted of die
TTITLE3=Black sheep
TTITLE4=Whip reward
TTITLE5=The eye of wrath
TTITLE6=Control
TTITLE7=State of war
TTITLE8=The order is fucked up
TTITLE9=I-Bomb
TTITLE10=Useless fucks
TTITLE11=Without grief
TTITLE12=Pigs on fire
TTITLE13=Worms of chaos
TTITLE14=Daily punishment
TTITLE15=Pisskeeper
TTITLE16=Behold the failure
TTITLE17=Regression
TTITLE18=Wish you the worst
TTITLE19=Let there be meat
TTITLE20=Parasites
TTITLE21=In cold blood
TTITLE22=Face reality
TTITLE23=Apathy
TTITLE24=Crawler
TTITLE25=Mass murder instituton
TTITLE26=Doomed
EXTD=
EXTT0=
EXTT1=
EXTT2=
EXTT3=
EXTT4=
EXTT5=
EXTT6=
EXTT7=
EXTT8=
EXTT9=
EXTT10=
EXTT11=
EXTT12=
EXTT13=
EXTT14=
EXTT15=
EXTT16=
EXTT17=
EXTT18=
EXTT19=
EXTT20=
EXTT21=
EXTT22=
EXTT23=
EXTT24=
EXTT25=
EXTT26=
PLAYORDER=
